<svg width="178" height="171" viewBox="0 0 178 171" fill="none" xmlns="http://www.w3.org/2000/svg">
<rect width="178" height="171" rx="20" fill="#FF458C"/>
<path d="M35.1612 100V70.9091H46.6385C48.8449 70.9091 50.7247 71.3305 52.2777 72.1733C53.8307 73.0066 55.0144 74.1667 55.8288 75.6534C56.6527 77.1307 57.0646 78.8352 57.0646 80.767C57.0646 82.6989 56.648 84.4034 55.8146 85.8807C54.9813 87.358 53.7739 88.5085 52.1925 89.3324C50.6205 90.1562 48.7171 90.5682 46.4822 90.5682H39.1669V85.6392H45.4879C46.6716 85.6392 47.647 85.4356 48.4141 85.0284C49.1906 84.6117 49.7682 84.0388 50.147 83.3097C50.5353 82.571 50.7294 81.7235 50.7294 80.767C50.7294 79.8011 50.5353 78.9583 50.147 78.2386C49.7682 77.5095 49.1906 76.946 48.4141 76.5483C47.6375 76.1411 46.6527 75.9375 45.4595 75.9375H41.3118V100H35.1612ZM70.4524 100.426C68.246 100.426 66.3378 99.9574 64.728 99.0199C63.1276 98.0729 61.8918 96.7566 61.0206 95.071C60.1494 93.3759 59.7138 91.411 59.7138 89.1761C59.7138 86.9223 60.1494 84.9527 61.0206 83.267C61.8918 81.572 63.1276 80.2557 64.728 79.3182C66.3378 78.3712 68.246 77.8977 70.4524 77.8977C72.6589 77.8977 74.5623 78.3712 76.1626 79.3182C77.7725 80.2557 79.013 81.572 79.8842 83.267C80.7554 84.9527 81.1911 86.9223 81.1911 89.1761C81.1911 91.411 80.7554 93.3759 79.8842 95.071C79.013 96.7566 77.7725 98.0729 76.1626 99.0199C74.5623 99.9574 72.6589 100.426 70.4524 100.426ZM70.4808 95.7386C71.4846 95.7386 72.3227 95.4545 72.995 94.8864C73.6674 94.3087 74.174 93.5227 74.5149 92.5284C74.8653 91.5341 75.0405 90.4025 75.0405 89.1335C75.0405 87.8646 74.8653 86.733 74.5149 85.7386C74.174 84.7443 73.6674 83.9583 72.995 83.3807C72.3227 82.803 71.4846 82.5142 70.4808 82.5142C69.4676 82.5142 68.6153 82.803 67.924 83.3807C67.2422 83.9583 66.7261 84.7443 66.3757 85.7386C66.0348 86.733 65.8643 87.8646 65.8643 89.1335C65.8643 90.4025 66.0348 91.5341 66.3757 92.5284C66.7261 93.5227 67.2422 94.3087 67.924 94.8864C68.6153 95.4545 69.4676 95.7386 70.4808 95.7386ZM90.6087 93.7216L90.6229 86.4631H91.5036L98.4922 78.1818H105.438L96.049 89.1477H94.6143L90.6087 93.7216ZM85.1257 100V70.9091H91.1768V100H85.1257ZM98.7621 100L92.3416 90.4972L96.3757 86.2216L105.85 100H98.7621ZM117.452 100.426C115.207 100.426 113.276 99.9716 111.656 99.0625C110.046 98.1439 108.806 96.8466 107.935 95.1705C107.063 93.4848 106.628 91.4915 106.628 89.1903C106.628 86.946 107.063 84.9763 107.935 83.2812C108.806 81.5862 110.032 80.2652 111.614 79.3182C113.205 78.3712 115.07 77.8977 117.21 77.8977C118.65 77.8977 119.99 78.1297 121.23 78.5938C122.48 79.0483 123.569 79.7348 124.497 80.6534C125.435 81.572 126.164 82.7273 126.685 84.1193C127.205 85.5019 127.466 87.1212 127.466 88.9773V90.6392H109.043V86.8892H121.77C121.77 86.018 121.58 85.2462 121.202 84.5739C120.823 83.9015 120.297 83.3759 119.625 82.9972C118.962 82.6089 118.19 82.4148 117.31 82.4148C116.391 82.4148 115.577 82.6278 114.866 83.054C114.166 83.4706 113.616 84.0341 113.219 84.7443C112.821 85.4451 112.617 86.2263 112.608 87.0881V90.6534C112.608 91.733 112.807 92.6657 113.205 93.4517C113.612 94.2377 114.185 94.8438 114.923 95.2699C115.662 95.696 116.538 95.9091 117.551 95.9091C118.223 95.9091 118.839 95.8144 119.398 95.625C119.956 95.4356 120.435 95.1515 120.832 94.7727C121.23 94.3939 121.533 93.9299 121.741 93.3807L127.338 93.75C127.054 95.0947 126.472 96.2689 125.591 97.2727C124.72 98.267 123.593 99.0436 122.21 99.6023C120.837 100.152 119.251 100.426 117.452 100.426ZM131.415 100V78.1818H137.281V81.9886H137.509C137.906 80.6345 138.574 79.6117 139.511 78.9205C140.449 78.2197 141.528 77.8693 142.75 77.8693C143.053 77.8693 143.38 77.8883 143.73 77.9261C144.08 77.964 144.388 78.0161 144.653 78.0824V83.4517C144.369 83.3665 143.976 83.2907 143.474 83.2244C142.973 83.1581 142.513 83.125 142.097 83.125C141.206 83.125 140.411 83.3191 139.71 83.7074C139.019 84.0862 138.47 84.6165 138.062 85.2983C137.665 85.9801 137.466 86.7661 137.466 87.6562V100H131.415Z" fill="white"/>
</svg>
